<?xml version="1.0" encoding="iso-8859-1"?>
<!-- Generator: Adobe Illustrator 19.0.0, SVG Export Plug-In . SVG Version: 6.00 Build 0)  -->
<svg version="1.1" id="Layer_1" xmlns="http://www.w3.org/2000/svg" xmlns:xlink="http://www.w3.org/1999/xlink" x="0px" y="0px"
	 viewBox="0 0 295.24 295.24" fill="white" stroke="white" stroke-width="5" style="enable-background:new 0 0 295.24 295.24;" xml:space="preserve">
			<path d="M229.138,43.13l0.033-0.271H22.057C9.895,42.858,0,52.753,0,64.915v2.095l1.543,1.414
				c13.781,12.648,22.643,29.838,24.962,48.4l12.229,98.005c2.667,21.41,20.948,37.552,42.524,37.552h84.914
				c21.695,0,39.99-16.248,42.557-37.79l15.848-133.138c15.752,2.643,27.805,16.338,27.805,32.833v64.286
				c0,11.814,9.614,21.429,21.429,21.429c11.814,0,21.429-9.614,21.429-21.429v-64.286C295.238,76.701,266.038,45.872,229.138,43.13
				z M199.271,213.468c-1.995,16.757-16.224,29.39-33.1,29.39H81.257c-16.781,0-31-12.557-33.076-29.21l-12.229-98.005
				C33.457,95.615,24.148,77.011,9.671,62.996c0.924-6,6.124-10.614,12.386-10.614h196.39L199.271,213.468z M285.714,178.572
				c0,6.562-5.343,11.905-11.905,11.905s-11.905-5.343-11.905-11.905v-64.286c0-21.362-15.729-39.071-36.205-42.286l2.31-19.405
				c32.176,2.176,57.705,28.971,57.705,61.69V178.572z"/>
			<rect x="71.429" y="100.001" width="42.857" height="9.524"/>
			<rect x="80.952" y="123.811" width="33.333" height="9.524"/>
			<rect x="71.429" y="147.62" width="42.857" height="9.524"/>
			<rect x="80.952" y="171.43" width="33.333" height="9.524"/>
			<rect x="133.333" y="100.001" width="42.857" height="9.524"/>
			<rect x="133.333" y="123.811" width="33.333" height="9.524"/>
			<rect x="133.333" y="147.62" width="42.857" height="9.524"/>
			<rect x="133.333" y="171.43" width="33.333" height="9.524"/>
</svg>
